<?xml version="1.0" encoding="UTF-8"?>
<svg width="22px" height="22px" viewBox="0 0 22 22" version="1.1" xmlns="http://www.w3.org/2000/svg" xmlns:xlink="http://www.w3.org/1999/xlink">
    <!-- Generator: Sketch 47.1 (45422) - http://www.bohemiancoding.com/sketch -->
    <title>language/ar</title>
    <desc>Created with Sketch.</desc>
    <defs>
        <path d="M5,3 L23,3 C24.1045695,3 25,3.8954305 25,5 L25,23 C25,24.1045695 24.1045695,25 23,25 L5,25 C3.8954305,25 3,24.1045695 3,23 L3,5 L3,5 C3,3.8954305 3.8954305,3 5,3 L5,3 Z M10.6521739,16.5344573 C10.6651878,18.7468205 12.4741201,20.1913635 15.6104703,20.2173913 C16.2221236,20.2043774 16.833777,20.1523218 17.4454303,19.9571133 L18.0831115,18.3173617 C17.4714581,18.4605146 16.8858326,18.4995563 16.1310263,18.4995563 C13.3981071,18.4995563 12.2919255,17.3413191 12.2919255,16.3782904 C12.2919255,15.6364981 12.8645371,14.8816918 14.3741497,14.3090802 C14.9597752,14.0878438 15.8967761,13.8405797 16.7296658,13.6453712 L16.963916,11.6412304 C15.7666371,11.9795918 14.4912748,12.3830228 13.7624963,12.6302869 C13.1118012,12.4480923 12.5131618,12.0446613 12.5131618,11.4980775 C12.5131618,11.0686188 13.0727595,10.4179237 14.3090802,10.4179237 C14.9597752,10.4179237 15.6625259,10.4960071 16.0919846,10.6912156 L15.9488317,9.12954747 C15.519373,8.89529725 14.9077196,8.73913043 14.2179828,8.73913043 C12.5131618,8.73913043 11.0946466,9.88435374 11.0946466,11.4460219 C11.0946466,12.2138421 11.4720497,13.00769 12.3049394,13.6193434 C11.2377995,14.3481219 10.6521739,15.4152618 10.6521739,16.5344573 Z" id="path-1"></path>
    </defs>
    <g id="4---Filter" stroke="none" stroke-width="1" fill="none" fill-rule="evenodd">
        <g id="4.0.1---0-Search----Filtered" transform="translate(-342.000000, -15.000000)">
            <g id="language/ar" transform="translate(339.000000, 12.000000)">
                <mask id="mask-2" fill="white">
                    <use xlink:href="#path-1"></use>
                </mask>
                <use id="Combined-Shape" fill="#FFFFFF" fill-rule="evenodd" xlink:href="#path-1"></use>
                <g id="color-/-flat-/-grey" mask="url(#mask-2)" fill-rule="evenodd" fill="#879195">
                    <rect id="base" x="0" y="0" width="28" height="28"></rect>
                </g>
            </g>
        </g>
    </g>
</svg>