<?xml version="1.0" encoding="UTF-8"?>
<svg width="28px" height="28px" viewBox="0 0 28 28" version="1.1" xmlns="http://www.w3.org/2000/svg" xmlns:xlink="http://www.w3.org/1999/xlink">
    <!-- Generator: Sketch 47.1 (45422) - http://www.bohemiancoding.com/sketch -->
    <title>language/en</title>
    <desc>Created with Sketch.</desc>
    <defs>
        <path d="M5,3 L23,3 C24.1045695,3 25,3.8954305 25,5 L25,23 C25,24.1045695 24.1045695,25 23,25 L5,25 C3.8954305,25 3,24.1045695 3,23 L3,5 L3,5 C3,3.8954305 3.8954305,3 5,3 L5,3 Z M8.73913043,17.4865392 L13.7095777,17.4865392 L13.7095777,16.0416418 L10.5076849,16.0416418 L10.5076849,14.192173 L13.3743614,14.192173 L13.3743614,12.7588348 L10.5076849,12.7588348 L10.5076849,11.1405496 L13.53619,11.1405496 L13.53619,9.69565217 L8.73913043,9.69565217 L8.73913043,17.4865392 Z M14.8423728,17.4865392 L16.6109273,17.4865392 L16.6109273,14.2268506 C16.6109273,14.0650221 16.6340456,13.8916344 16.6802824,13.7876017 C16.7958741,13.4639447 17.0848536,13.1287285 17.5703392,13.1287285 C18.1945349,13.1287285 18.460396,13.6257732 18.460396,14.3540015 L18.460396,17.4865392 L20.2173913,17.4865392 L20.2173913,14.1343771 C20.2173913,12.4698553 19.3504528,11.7069494 18.1945349,11.7069494 C17.2466822,11.7069494 16.6802824,12.2502309 16.4490988,12.6201246 L16.4144212,12.6201246 L16.333507,11.8341004 L14.7961361,11.8341004 C14.8192544,12.3427043 14.8423728,12.9322225 14.8423728,13.6373324 L14.8423728,17.4865392 Z" id="path-1"></path>
    </defs>
    <g id="Symbols" stroke="none" stroke-width="1" fill="none" fill-rule="evenodd">
        <g id="language/en">
            <mask id="mask-2" fill="white">
                <use xlink:href="#path-1"></use>
            </mask>
            <use id="Combined-Shape" fill="#D8D8D8" xlink:href="#path-1"></use>
            <g id="color-/-flat-/-grey" mask="url(#mask-2)" fill="#879195">
                <rect id="base" x="0" y="0" width="28" height="28"></rect>
            </g>
        </g>
    </g>
</svg>